<svg width="60" height="60" viewBox="0 0 60 60" fill="none" xmlns="http://www.w3.org/2000/svg">
<path fill-rule="evenodd" clip-rule="evenodd" d="M12.5 10H30C34.15 10 37.5 13.35 37.5 17.5V20H32.5V15H10V32.5H22.5V45H17.5L12.5 50H10V47.5L12.5 45C8.35 45 5 41.65 5 37.5V17.5C5 13.35 8.35 10 12.5 10ZM15 37.5C15 36.125 13.875 35 12.5 35C11.125 35 10 36.125 10 37.5C10 38.875 11.125 40 12.5 40C13.875 40 15 38.875 15 37.5ZM51.425 24.15C51.075 23.15 50.125 22.5 49 22.5H31.025C29.875 22.5 28.95 23.15 28.575 24.15L25.025 34.425V48.2C25.025 49.15 25.8 50 26.75 50H28.3C29.25 50 30 49.05 30 48.1V45H50V48.1C50 49.05 50.775 50 51.725 50H53.25C54.2 50 54.975 49.15 54.975 48.2L55 44.775V34.425L51.425 24.15ZM49 25H31.025L28.45 32.5H51.575L49 25ZM30 40C28.625 40 27.5 38.875 27.5 37.5C27.5 36.125 28.625 35 30 35C31.375 35 32.5 36.125 32.5 37.5C32.5 38.875 31.375 40 30 40ZM47.5 37.5C47.5 38.875 48.625 40 50 40C51.375 40 52.5 38.875 52.5 37.5C52.5 36.125 51.375 35 50 35C48.625 35 47.5 36.125 47.5 37.5Z" fill="#426A02"/>
</svg>
