<svg width="60" height="60" viewBox="0 0 60 60" fill="none" xmlns="http://www.w3.org/2000/svg">
<path opacity="0.5" fill-rule="evenodd" clip-rule="evenodd" d="M30 27.5H35V32.5H30V37.5H35V42.5H30V47.5H50V22.5H30V27.5ZM40 27.5H45V32.5H40V27.5ZM45 37.5H40V42.5H45V37.5Z" fill="#426A02"/>
<path d="M40 37.5H45V42.5H40V37.5Z" fill="#426A02"/>
<path d="M40 27.5H45V32.5H40V27.5Z" fill="#426A02"/>
<path fill-rule="evenodd" clip-rule="evenodd" d="M30 17.5H55V52.5H5V7.5H30V17.5ZM10 47.5H15V42.5H10V47.5ZM15 37.5H10V32.5H15V37.5ZM10 27.5H15V22.5H10V27.5ZM15 17.5H10V12.5H15V17.5ZM20 47.5H25V42.5H20V47.5ZM25 37.5H20V32.5H25V37.5ZM20 27.5H25V22.5H20V27.5ZM25 17.5H20V12.5H25V17.5ZM30 47.5H50V22.5H30V27.5H35V32.5H30V37.5H35V42.5H30V47.5Z" fill="#426A02"/>
</svg>
