<svg width="60" height="60" viewBox="0 0 60 60" fill="none" xmlns="http://www.w3.org/2000/svg">
<path d="M11 45.4749C11 46.8749 12.125 47.9999 13.525 47.9999H46C47.4 47.9999 48.525 46.8749 48.525 45.4749V43.0249H11V45.4749Z" fill="#426A02"/>
<path opacity="0.5" d="M29.7501 18C26.2001 18 20.325 19.15 17.55 23.025H41.9751C39.1751 19.15 33.3001 18 29.7501 18Z" fill="#6DAD04"/>
<path fill-rule="evenodd" clip-rule="evenodd" d="M11 28.025C11 18.025 20.375 13 29.75 13C39.125 13 48.5 18.025 48.5 28.025H11ZM29.75 18C26.225 18 20.325 19.15 17.55 23.025H41.95C39.175 19.15 33.275 18 29.75 18Z" fill="#426A02"/>
<path d="M11 33.0249H48.5V38.0249H11V33.0249Z" fill="#6DAD04"/>
</svg>
