<svg width="60" height="60" viewBox="0 0 60 60" fill="none" xmlns="http://www.w3.org/2000/svg">
<path opacity="0.5" d="M17.5 30.675V39.975L30 46.8L42.5 39.975V30.675L30 37.5L17.5 30.675Z" fill="#426A02"/>
<path opacity="0.5" d="M12.95 22.5L30 31.8L47.05 22.5L30 13.2L12.95 22.5Z" fill="#426A02"/>
<path fill-rule="evenodd" clip-rule="evenodd" d="M30 7.5L2.5 22.5L12.5 27.95V42.95L30 52.5L47.5 42.95V27.95L52.5 25.225V42.5H57.5V22.5L30 7.5ZM42.5 39.975L30 46.8L17.5 39.975V30.675L30 37.5L42.5 30.675V39.975ZM12.95 22.5L30 31.8L47.05 22.5L30 13.2L12.95 22.5Z" fill="#426A02"/>
</svg>
