<svg width="60" height="60" viewBox="0 0 60 60" fill="none" xmlns="http://www.w3.org/2000/svg">
<path d="M11.9531 15.9375C7.1625 15.9375 3.28125 19.8187 3.28125 24.6094V38.4375C3.28125 39.9891 4.54219 41.25 6.09375 41.25V55.1953C6.09375 56.7375 7.27969 58.0781 8.82187 58.125C10.4156 58.1719 11.7188 56.8969 11.7188 55.3125C11.7188 56.8922 13.0266 58.1719 14.6156 58.125C16.1531 58.0781 17.3438 56.7375 17.3438 55.1953V38.4375H20.625V24.6094C20.625 19.8187 16.7438 15.9375 11.9531 15.9375Z" fill="#6DAD04" fill-opacity="0.16"/>
<path d="M3.28125 33.9844V38.4375C3.28125 39.9891 4.54219 41.25 6.09375 41.25V55.1953C6.09375 56.7375 7.27969 58.0781 8.82187 58.125C10.4156 58.1719 11.7188 56.8969 11.7188 55.3125C11.7188 56.8922 13.0266 58.1719 14.6156 58.125C16.1531 58.0781 17.3438 56.7375 17.3438 55.1953V39.8438H21.0938L20.625 33.9844H3.28125Z" fill="#6DAD04" fill-opacity="0.16"/>
<path d="M11.7188 11.25C14.3076 11.25 16.4062 9.15133 16.4062 6.5625C16.4062 3.97367 14.3076 1.875 11.7188 1.875C9.12992 1.875 7.03125 3.97367 7.03125 6.5625C7.03125 9.15133 9.12992 11.25 11.7188 11.25Z" fill="#6DAD04" fill-opacity="0.16"/>
<path d="M11.7188 12.6562C8.35781 12.6562 5.625 9.92344 5.625 6.5625C5.625 3.20156 8.35781 0.46875 11.7188 0.46875C15.0797 0.46875 17.8125 3.20156 17.8125 6.5625C17.8125 9.92344 15.0797 12.6562 11.7188 12.6562ZM11.7188 3.28125C9.90938 3.28125 8.4375 4.75313 8.4375 6.5625C8.4375 8.37187 9.90938 9.84375 11.7188 9.84375C13.5281 9.84375 15 8.37187 15 6.5625C15 4.75313 13.5281 3.28125 11.7188 3.28125Z" fill="#426A02"/>
<path d="M45 45.9375C45 48.6281 47.2687 50.7938 50.0016 50.6156C52.4953 50.4563 54.375 48.2766 54.375 45.7781V44.0625C54.375 41.475 52.275 39.375 49.6875 39.375H46.1766C45.525 39.375 45 39.9 45 40.5516V45.9375Z" fill="#6DAD04" fill-opacity="0.16"/>
<path d="M49.6875 34.6875C51.4997 34.6875 52.9688 33.2184 52.9688 31.4062C52.9688 29.5941 51.4997 28.125 49.6875 28.125C47.8753 28.125 46.4062 29.5941 46.4062 31.4062C46.4062 33.2184 47.8753 34.6875 49.6875 34.6875Z" fill="#6DAD04" fill-opacity="0.16"/>
<path d="M49.6875 36.0938C47.1047 36.0938 45 33.9891 45 31.4062C45 28.8234 47.1047 26.7188 49.6875 26.7188C52.2703 26.7188 54.375 28.8234 54.375 31.4062C54.375 33.9891 52.2703 36.0938 49.6875 36.0938ZM49.6875 29.5312C48.6516 29.5312 47.8125 30.3703 47.8125 31.4062C47.8125 32.4422 48.6516 33.2812 49.6875 33.2812C50.7234 33.2812 51.5625 32.4422 51.5625 31.4062C51.5625 30.3703 50.7234 29.5312 49.6875 29.5312Z" fill="#426A02"/>
<path d="M30 15.9375C25.0828 15.9375 21.0938 19.9266 21.0938 24.8438V38.4375C21.0938 39.9891 22.3547 41.25 23.9062 41.25V45.9375H35.1562V40.3125H38.9062V24.8438C38.9062 19.9266 34.9172 15.9375 30 15.9375Z" fill="#6DAD04" fill-opacity="0.16"/>
<path d="M30 11.25C32.5888 11.25 34.6875 9.15133 34.6875 6.5625C34.6875 3.97367 32.5888 1.875 30 1.875C27.4112 1.875 25.3125 3.97367 25.3125 6.5625C25.3125 9.15133 27.4112 11.25 30 11.25Z" fill="#6DAD04" fill-opacity="0.16"/>
<path d="M30 12.6562C26.6391 12.6562 23.9063 9.92344 23.9063 6.5625C23.9063 3.20156 26.6391 0.46875 30 0.46875C33.3609 0.46875 36.0938 3.20156 36.0938 6.5625C36.0938 9.92344 33.3609 12.6562 30 12.6562ZM30 3.28125C28.1906 3.28125 26.7188 4.75313 26.7188 6.5625C26.7188 8.37187 28.1906 9.84375 30 9.84375C31.8094 9.84375 33.2813 8.37187 33.2813 6.5625C33.2813 4.75313 31.8094 3.28125 30 3.28125ZM59.0391 50.3719L58.2141 45.8391C57.4734 41.775 54.2203 38.7047 50.1188 38.2078C45.0984 37.5984 41.2266 33.6609 40.7063 28.6313L40.1953 23.7422C39.6469 18.4922 35.2547 14.5312 29.9672 14.5312C27.7828 14.5312 25.6969 15.2062 23.9344 16.4859C23.3063 16.9406 23.1656 17.8219 23.6203 18.45C24.075 19.0781 24.9563 19.2188 25.5844 18.7641C26.8641 17.8359 28.3781 17.3438 29.9672 17.3438C33.8063 17.3438 36.9984 20.2219 37.3969 24.0375L37.9078 28.9266C38.3297 32.9672 40.4672 36.4406 43.5938 38.6344V45.9375C43.5938 47.6391 44.2969 49.1766 45.4266 50.2828L45.9422 58.2094C45.9891 58.9547 46.6078 59.5266 47.3438 59.5266C47.3719 59.5266 47.4047 59.5266 47.4328 59.5219C48.2063 59.475 48.7969 58.8047 48.75 58.0312L48.3656 51.8766C48.7922 51.9703 49.2375 52.0266 49.6922 52.0266H51.0094L50.6344 58.0312C50.5875 58.8047 51.1734 59.475 51.9516 59.5219C51.9797 59.5219 52.0125 59.5266 52.0406 59.5266C52.7766 59.5266 53.3953 58.9547 53.4422 58.2094L53.9109 50.7094C53.9344 50.3203 53.7984 49.9406 53.5313 49.6594C53.2641 49.3781 52.8891 49.2188 52.5 49.2188H49.6875C47.8781 49.2188 46.4063 47.7469 46.4063 45.9375V40.1531C47.4703 40.5703 48.6 40.8609 49.7813 41.0016C52.6547 41.3484 54.9328 43.4953 55.4484 46.3406L56.2734 50.8734C56.3953 51.5531 56.9906 52.0266 57.6563 52.0266C57.7406 52.0266 57.825 52.0172 57.9094 52.0031C58.6734 51.8719 59.1797 51.1359 59.0391 50.3719Z" fill="#426A02"/>
<path d="M36.0938 35.1562C35.3156 35.1562 34.6875 35.7844 34.6875 36.5625V44.5312H25.3125C25.3125 43.7531 24.6844 43.125 23.9062 43.125C23.1281 43.125 22.5 43.7531 22.5 44.5312C22.5 46.0828 23.7609 47.3438 25.3125 47.3438H25.4156L26.2547 58.2328C26.3109 58.9688 26.925 59.5312 27.6562 59.5312C27.6938 59.5312 27.7266 59.5312 27.7641 59.5266C28.5375 59.4656 29.1188 58.7906 29.0578 58.0172L28.2375 47.3438H31.7625L30.9422 58.0172C30.8813 58.7906 31.4625 59.4656 32.2359 59.5266C32.2734 59.5312 32.3109 59.5312 32.3438 59.5312C33.0703 59.5312 33.6891 58.9688 33.7453 58.2328L34.5844 47.3438H34.6875C36.2391 47.3438 37.5 46.0828 37.5 44.5312V36.5625C37.5 35.7844 36.8719 35.1562 36.0938 35.1562ZM22.3828 23.7469C21.8344 18.4922 17.4422 14.5312 12.1547 14.5312C6.4875 14.5312 1.875 19.1437 1.875 24.8156V38.4375C1.875 40.2703 3.05156 41.8359 4.6875 42.4172V55.3125C4.6875 57.6375 6.58125 59.5312 8.90625 59.5312C9.98906 59.5312 10.9734 59.1188 11.7188 58.4484C12.4641 59.1188 13.4484 59.5312 14.5312 59.5312C16.8562 59.5312 18.75 57.6375 18.75 55.3125V43.125C18.75 42.3469 18.1219 41.7188 17.3438 41.7188C16.5656 41.7188 15.9375 42.3469 15.9375 43.125V55.3125C15.9375 56.0859 15.3047 56.7188 14.5312 56.7188C13.7578 56.7188 13.125 56.0859 13.125 55.3125V38.4375C13.125 37.6594 12.4969 37.0312 11.7188 37.0312C10.9406 37.0312 10.3125 37.6594 10.3125 38.4375V55.3125C10.3125 56.0859 9.67969 56.7188 8.90625 56.7188C8.13281 56.7188 7.5 56.0859 7.5 55.3125V41.25C7.5 40.4719 6.87187 39.8438 6.09375 39.8438C5.32031 39.8438 4.6875 39.2109 4.6875 38.4375V24.8156C4.6875 20.6953 8.03906 17.3438 12.1547 17.3438C15.9703 17.3438 19.1484 20.1891 19.575 23.9719V38.4375C19.575 39.2156 20.2031 39.8438 20.9812 39.8438C21.7594 39.8438 22.3875 39.2156 22.3875 38.4375V23.8922C22.3922 23.8453 22.3875 23.7984 22.3828 23.7469Z" fill="#426A02"/>
</svg>
