<svg width="60" height="60" viewBox="0 0 60 60" fill="none" xmlns="http://www.w3.org/2000/svg">
<g clip-path="url(#clip0_116_1071)">
<path d="M22.4317 38.3312C23.0368 38.1718 23.6338 37.9828 24.2204 37.7649C24.2467 37.7556 24.2715 37.7373 24.2973 37.7256C24.9117 38.1985 25.4089 38.8066 25.7503 39.5027C26.0917 40.1988 26.2682 40.9641 26.266 41.7395C26.2673 41.9882 26.3673 42.2263 26.5441 42.4013C26.7209 42.5764 26.9599 42.674 27.2087 42.6727C27.4575 42.6715 27.6955 42.5715 27.8706 42.3947C28.0456 42.2179 28.1432 41.9789 28.142 41.7301C28.1482 40.6906 27.9173 39.6634 27.4668 38.7266C27.0163 37.7899 26.3581 36.9681 25.5423 36.324C26.015 35.3901 26.3844 34.4074 26.6438 33.3934C28.5179 25.4649 25.6173 19.7902 18.0235 16.5268C14.2103 14.8885 7.68572 12.6385 8.84963 7.25963C8.89099 7.06829 8.87142 6.8688 8.79367 6.68915C8.71592 6.5095 8.58388 6.35869 8.41607 6.25789C8.24827 6.15708 8.05312 6.11133 7.85799 6.12705C7.66287 6.14278 7.47756 6.21919 7.32806 6.34556C3.80072 9.32072 1.4265 12.0282 0.491814 16.3238C-0.151138 19.084 -0.181706 21.9515 0.402259 24.7248C0.986223 27.498 2.17055 30.1097 3.87197 32.3762C6.92869 36.5279 12.2298 38.9317 17.7301 38.9317C19.3164 38.9327 20.8964 38.7306 22.4317 38.3312ZM5.38275 31.2652C3.84217 29.2115 2.77007 26.8453 2.24183 24.333C1.71358 21.8206 1.742 19.223 2.32509 16.7227C2.994 13.6463 4.55447 11.4531 6.85322 9.27431C7.35197 14.4385 13.217 16.5024 17.2824 18.249C24.1037 21.1801 26.4981 25.8554 24.8185 32.9626C24.606 33.7619 24.3209 34.5401 23.9668 35.2876C22.2249 34.3065 18.1815 31.8071 15.7674 28.5282C15.6201 28.3279 15.3992 28.1943 15.1534 28.1568C14.9076 28.1193 14.6569 28.181 14.4566 28.3283C14.2562 28.4756 14.1226 28.6965 14.0851 28.9423C14.0476 29.1882 14.1093 29.4388 14.2567 29.6392C16.5615 32.7699 20.1034 35.1798 22.216 36.4431C22.1307 36.467 22.0426 36.4956 21.9573 36.5181C16.8245 37.8582 9.44822 36.7862 5.38275 31.2652Z" fill="#6DAD04"/>
<path d="M55.1883 8.44498C51.972 5.04831 47.5613 3.03495 42.888 2.83027C38.2147 2.62559 33.6448 4.24563 30.1439 7.34811C30.1089 7.37855 30.064 7.39531 30.0176 7.39531C29.9712 7.39531 29.9263 7.37855 29.8913 7.34811C27.1659 4.93207 23.7721 3.39896 20.1576 2.951C16.5431 2.50304 12.8778 3.16128 9.64502 4.83889C10.0671 5.1621 10.3886 5.59862 10.5721 6.09757C10.7556 6.59652 10.7935 7.13735 10.6814 7.65702C9.99236 10.8417 13.5122 12.5995 17.8317 14.4103C18.1552 14.5462 18.4674 14.6775 18.7631 14.804C24.0174 17.0615 27.2991 20.4661 28.5244 24.8437H35.1103C35.2443 24.7836 35.3621 24.6925 35.4539 24.578L37.1616 17.498C37.2355 17.1865 37.4125 16.9092 37.6638 16.711C37.9152 16.5128 38.2262 16.4054 38.5463 16.4062C38.8641 16.4179 39.1684 16.5373 39.4094 16.7448C39.6504 16.9523 39.8137 17.2356 39.8724 17.5481L41.8528 28.1531L44.5285 20.8584C44.5378 20.835 44.5472 20.8106 44.558 20.7881C44.6651 20.5441 44.8405 20.3362 45.0631 20.1895C45.2856 20.0428 45.5458 19.9635 45.8124 19.9612H45.8128C46.0794 19.9632 46.3397 20.0422 46.5624 20.1886C46.7851 20.3351 46.9607 20.5428 47.0681 20.7867L48.6722 24.4687C48.7428 24.6051 48.8318 24.7311 48.9366 24.8433H59.505C60.2062 21.9665 60.1786 18.9603 59.4249 16.0968C58.6711 13.2334 57.215 10.6032 55.1883 8.44452V8.44498Z" fill="#426A02"/>
<path d="M46.9621 25.2383L45.853 22.693L42.9857 30.509C42.9763 30.5333 42.9669 30.5568 42.9561 30.5802C42.8497 30.8238 42.6751 31.0313 42.4534 31.1779C42.2316 31.3244 41.9722 31.4037 41.7065 31.4062C41.6567 31.4062 41.6069 31.4036 41.5574 31.3982C41.2603 31.3629 40.9822 31.2339 40.7633 31.03C40.5445 30.826 40.3962 30.5577 40.34 30.2638L38.451 20.1482L37.2636 25.0701C37.109 25.519 36.8277 25.9135 36.4537 26.206C36.0797 26.4986 35.6291 26.6766 35.1561 26.7187H28.9124C29.2081 29.0943 29.0573 31.5042 28.468 33.8244C28.2889 34.5273 28.0658 35.2182 27.8 35.893C29.2451 37.4881 30.0367 39.5688 30.0172 41.721C30.019 42.0904 29.948 42.4566 29.8083 42.7986C29.6685 43.1405 29.4628 43.4516 29.2028 43.7141C28.9428 43.9765 28.6336 44.1852 28.2929 44.3281C27.9523 44.471 27.5868 44.5454 27.2174 44.5471H27.208C26.4644 44.5461 25.7512 44.2516 25.2236 43.7275C24.6961 43.2035 24.3968 42.4923 24.3908 41.7487C24.3977 41.0813 24.1904 40.4294 23.7993 39.8887C23.4983 39.9824 23.2007 40.0682 22.904 40.1451C21.2145 40.585 19.4757 40.8071 17.7299 40.806C15.7152 40.8071 13.7111 40.5152 11.7805 39.9393L28.551 56.594C28.9441 56.9749 29.4701 57.1879 30.0175 57.1879C30.5649 57.1879 31.0908 56.9749 31.484 56.594L54.584 33.6533C56.5486 31.703 58.0444 29.3318 58.9583 26.7187H48.7499C47.6615 26.7187 46.9897 25.2983 46.9621 25.2383Z" fill="#426A02"/>
</g>
<defs>
<clipPath id="clip0_116_1071">
<rect width="60" height="60" fill="white"/>
</clipPath>
</defs>
</svg>
