<svg width="60" height="60" viewBox="0 0 60 60" fill="none" xmlns="http://www.w3.org/2000/svg">
<path d="M55 37.5V22.5C55 10 50 5 37.5 5H22.5C10 5 5 10 5 22.5V37.5C5 50 10 55 22.5 55H37.5C50 55 55 50 55 37.5Z" stroke="#426A02" stroke-width="1.5" stroke-linecap="round" stroke-linejoin="round"/>
<g opacity="0.6">
<path d="M21.0549 42.7724C22.0959 42.7724 23.0942 42.3588 23.8303 41.6228C24.5664 40.8867 24.9799 39.8883 24.9799 38.8474C24.9799 37.8064 24.5664 36.8081 23.8303 36.072C23.0942 35.3359 22.0959 34.9224 21.0549 34.9224C20.0139 34.9224 19.0156 35.3359 18.2795 36.072C17.5434 36.8081 17.1299 37.8064 17.1299 38.8474C17.1299 39.8883 17.5434 40.8867 18.2795 41.6228C19.0156 42.3588 20.0139 42.7724 21.0549 42.7724Z" stroke="#6DAD04" stroke-width="1.5" stroke-linecap="round" stroke-linejoin="round"/>
<path d="M39.375 36.2225V20.8725C39.375 17.5975 37.325 17.1475 35.25 17.7225L27.4 19.8725C25.975 20.2725 25 21.3975 25 23.0225V38.8725" stroke="#6DAD04" stroke-width="1.5" stroke-linecap="round" stroke-linejoin="round"/>
<path d="M24.98 27.5974L39.38 23.6724M35.45 40.1449C35.9654 40.1449 36.4758 40.0433 36.952 39.8461C37.4282 39.6488 37.8609 39.3597 38.2254 38.9953C38.5898 38.6308 38.879 38.1981 39.0762 37.7219C39.2735 37.2457 39.375 36.7353 39.375 36.2199C39.375 35.7044 39.2735 35.194 39.0762 34.7178C38.879 34.2416 38.5898 33.8089 38.2254 33.4445C37.8609 33.08 37.4282 32.7909 36.952 32.5936C36.4758 32.3964 35.9654 32.2949 35.45 32.2949C34.409 32.2949 33.4107 32.7084 32.6746 33.4445C31.9385 34.1805 31.525 35.1789 31.525 36.2199C31.525 37.2608 31.9385 38.2592 32.6746 38.9953C33.4107 39.7313 34.409 40.1449 35.45 40.1449Z" stroke="#6DAD04" stroke-width="1.5" stroke-linecap="round" stroke-linejoin="round"/>
</g>
</svg>
