<svg width="60" height="60" viewBox="0 0 60 60" fill="none" xmlns="http://www.w3.org/2000/svg">
<path opacity="0.8" d="M24.65 47.4951L28.85 43.9451C29.475 43.4201 30.525 43.4201 31.175 43.9451L35.3501 47.4951C36.3251 47.9951 37.525 47.4951 37.875 46.4451L38.6751 44.0451C38.8751 43.4701 38.6751 42.6201 38.2501 42.1951L34.15 38.0701C33.8343 37.7177 33.649 37.2677 33.625 36.7951V32.1701C33.625 31.1201 34.4 30.6201 35.375 31.0201L43.75 34.6201C45.125 35.2201 46.275 34.4701 46.275 32.9701V30.6451C46.275 29.4451 45.375 28.0451 44.25 27.5701L34.4 23.3201C34.1826 23.2143 33.998 23.0514 33.8659 22.8489C33.7338 22.6464 33.6592 22.4117 33.65 22.1701V16.9951C33.65 15.2951 32.4 13.2951 30.9 12.5201C30.6327 12.3846 30.3373 12.314 30.0375 12.314C29.7378 12.314 29.4424 12.3846 29.175 12.5201C27.65 13.2701 26.425 15.2951 26.425 16.9951V22.1701C26.425 22.6201 26.0751 23.1451 25.6751 23.3201L15.825 27.5701C14.725 28.0451 13.8 29.4451 13.8 30.6451V32.9701C13.8 34.4701 14.925 35.2201 16.325 34.6201L24.7 31.0201C25.65 30.5951 26.45 31.1201 26.45 32.1701V36.7951C26.45 37.2201 26.2 37.7951 25.925 38.0701L21.75 42.1701C21.325 42.5951 21.125 43.4451 21.325 44.0201L22.125 46.4201C22.475 47.4951 23.65 47.9951 24.65 47.4951Z" stroke="#6DAD04" stroke-width="1.5" stroke-linecap="round" stroke-linejoin="round"/>
<path d="M22.5 55H37.5C50 55 55 50 55 37.5V22.5C55 10 50 5 37.5 5H22.5C10 5 5 10 5 22.5V37.5C5 50 10 55 22.5 55Z" stroke="#426A02" stroke-width="1.5" stroke-linecap="round" stroke-linejoin="round"/>
</svg>
